<?xml version="1.0" encoding="UTF-8" standalone="no"?>
<!-- Created with Inkscape (http://www.inkscape.org/) -->

<svg
   width="512"
   height="512"
   viewBox="0 0 512 512"
   version="1.1"
   id="svg5"
   inkscape:version="1.1.2 (0a00cf5339, 2022-02-04)"
   sodipodi:docname="leaptime-manager.svg"
   xmlns:inkscape="http://www.inkscape.org/namespaces/inkscape"
   xmlns:sodipodi="http://sodipodi.sourceforge.net/DTD/sodipodi-0.dtd"
   xmlns="http://www.w3.org/2000/svg"
   xmlns:svg="http://www.w3.org/2000/svg">
  <sodipodi:namedview
     id="namedview7"
     pagecolor="#ffffff"
     bordercolor="#666666"
     borderopacity="1.0"
     inkscape:pageshadow="2"
     inkscape:pageopacity="0.0"
     inkscape:pagecheckerboard="0"
     inkscape:document-units="px"
     showgrid="false"
     units="px"
     width="512px"
     inkscape:zoom="0.25"
     inkscape:cx="-144"
     inkscape:cy="692"
     inkscape:window-width="1920"
     inkscape:window-height="1020"
     inkscape:window-x="0"
     inkscape:window-y="32"
     inkscape:window-maximized="1"
     inkscape:current-layer="layer1" />
  <defs
     id="defs2" />
  <g
     inkscape:label="Layer 1"
     inkscape:groupmode="layer"
     id="layer1">
    <path
       id="path3258"
       style="color:#000000;fill:#0066ff;stroke-width:43.1531;-inkscape-stroke:none"
       d="M 256.00851,0 242.3383,10.796712 228.66809,21.593386 214.99787,32.390098 C 175.84553,63.319825 122.97495,79.736354 69.457445,76.438678 L 0,72.1567 v 68.26084 c 0,146.904 86.239206,281.33934 222.10212,353.74515 l 0.29152,0.28573 2.85957,1.49201 30.75532,16.05944 30.72979,-16.05944 C 424.45522,423.95351 512.00002,288.4794 512.00002,140.41746 V 72.156587 l -69.45744,4.281978 C 389.03553,79.735371 336.16822,63.324776 297.01917,32.408769 c -0.006,-0.0038 -0.0144,-0.0076 -0.0215,-0.01512 z m -0.005,27.438275 27.3234,21.593424 0.005,0.0038 c 43.6357,34.468876 101.69331,52.357191 160.57658,48.729109 l 46.30426,-2.854601 v 45.507213 c 0,139.80628 -82.61412,268.13345 -213.72128,336.66532 l -20.48723,10.70694 -20.50214,-10.70487 -0.002,-0.002 C 104.39223,408.55072 21.787235,280.22257 21.787235,140.41743 V 94.910212 L 68.09149,97.764814 C 126.97623,101.39327 185.0277,83.503447 228.66382,49.031547 l 13.67022,-10.796674 z" />
    <path
       id="path3211"
       style="color:#000000;fill:#d40000;stroke-width:43.1531;-inkscape-stroke:none"
       d="M 256.00426,27.438275 242.33404,38.234987 228.66382,49.031699 C 185.0277,83.50356 126.97623,101.39339 68.09149,97.764965 L 21.787235,94.910326 v 45.507214 c 0,139.80518 82.604995,268.13333 213.712765,336.66532 l 0.002,0.002 20.50214,10.70487 20.48723,-10.70695 C 407.59864,408.55099 490.21276,280.22382 490.21276,140.41754 V 94.910326 L 443.9085,97.764965 C 385.02524,101.39305 326.96763,83.504732 283.33192,49.035894 l -0.005,-0.0038 z m -0.005,27.438312 13.66171,10.796712 c 48.09064,37.989731 111.38986,57.375121 175.61322,53.417991 l 23.15107,-1.42734 v 22.75359 c 0,131.55931 -77.6587,252.71796 -202.18085,317.80763 l -10.24469,5.35453 -10.25319,-5.35453 C 121.22437,393.13547 43.574296,271.97662 43.574296,140.41754 v -22.75359 l 23.151065,1.42734 C 130.94814,123.04861 194.24026,103.66315 242.32961,65.673299 Z" />
    <path
       id="path3010"
       style="color:#000000;fill:#2aff80;stroke-width:43.1531;-inkscape-stroke:none"
       d="M 255.99999,54.876587 242.32978,65.673299 C 194.24043,103.66315 130.94831,123.04861 66.725535,119.09129 l -23.151066,-1.42734 v 22.75359 c 0,131.55908 77.650071,252.71793 202.172341,317.80763 l 10.25318,5.35453 10.24469,-5.35453 C 390.76683,393.1355 468.42553,271.97685 468.42553,140.41754 v -22.75359 l -23.15106,1.42734 C 381.0511,123.04842 317.75188,103.66303 269.6617,65.673299 Z m -0.002,27.436233 a 262.82302,237.95195 0 0 0 190.63812,58.1068 c 0,123.3267 -72.67092,237.28657 -190.63829,298.94994 C 138.03046,377.70619 65.359576,263.74632 65.359576,140.41962 A 262.81671,237.94623 0 0 0 255.99787,82.31282 Z" />
    <path
       style="fill:#ffe680;fill-opacity:1;stroke:none;stroke-width:0.100588;stroke-miterlimit:4;stroke-dasharray:none;stroke-opacity:1"
       d="M 255.99741,82.312404 A 262.81672,237.94624 0 0 1 65.359965,140.41954 c 0,123.32671 72.670025,237.28574 190.637445,298.94907 117.96737,-61.66333 190.63915,-175.62236 190.63915,-298.94907 v 0 A 262.82302,237.95195 0 0 1 255.99741,82.312404 Z"
       id="path2078"
       inkscape:connector-curvature="0" />
    <g
       id="g1387"
       transform="matrix(4.0314962,0,0,4.0314962,641.87171,-798.80058)">
      <path
         d="m -99.253868,250.14404 c 1.15997,0 2.10357,0.94058 2.10357,2.08938 v 14.30657 l 8.18651,6.3397 c 0.94802,0.69655 1.09123,2.01986 0.38809,2.92512 -0.38665,0.52208 -1.02105,0.79728 -1.65404,0.79728 -0.45682,0 -0.90648,-0.17166 -1.29314,-0.45112 l -9.030282,-6.96092 c -0.49121,-0.38304 -0.81056,-0.97746 -0.81056,-1.63842 v -15.31848 c 0,-1.14912 0.94945,-2.0894 2.109142,-2.0894 z"
         style="fill:#000080;stroke-width:3.7712"
         id="path926" />
      <path
         style="fill:#ff5555;stroke-width:1.65352"
         d="m -72.431695,250.14375 8.466995,12.7034 h -5.290802 c 0.148727,11.63677 -8.331454,22.69809 -19.627385,25.51924 -7.622127,2.12989 -16.241223,0.57562 -22.505933,-4.29453 -3.19601,-3.63147 2.79094,-7.41836 5.47602,-3.90434 7.757668,4.70797 18.622103,3.21471 24.7479,-3.51071 3.544886,-3.6529 5.583507,-8.71807 5.557074,-13.81134 h -5.290865 z"
         id="path1166" />
      <path
         style="fill:#008000;stroke-width:1.65352"
         d="m -95.66177,236.38366 c 5.566947,0.0125 11.211631,1.74626 15.619571,5.18091 3.10008,3.5719 -2.805814,7.3968 -5.46615,3.91421 -8.007317,-4.84522 -19.300001,-3.14027 -25.324941,4.10603 -3.20593,3.59503 -5.0114,8.39231 -4.98991,13.2094 h 5.2908 l -8.4653,12.70178 -8.467,-12.70178 h 5.2908 c -0.16872,-11.49951 8.10162,-22.44009 19.20414,-25.41667 2.38088,-0.65488 4.8345,-1.02032 7.30799,-0.99388 z"
         id="path9" />
    </g>
  </g>
</svg>
