<?xml version="1.0" encoding="UTF-8" standalone="no"?>
<svg
   width="512"
   height="512"
   viewBox="0 0 135.46667 135.46666"
   version="1.1"
   id="svg8"
   inkscape:version="1.2.2 (b0a8486541, 2022-12-01)"
   sodipodi:docname="leaptime-manager.svg"
   xmlns:inkscape="http://www.inkscape.org/namespaces/inkscape"
   xmlns:sodipodi="http://sodipodi.sourceforge.net/DTD/sodipodi-0.dtd"
   xmlns="http://www.w3.org/2000/svg"
   xmlns:svg="http://www.w3.org/2000/svg"
   xmlns:rdf="http://www.w3.org/1999/02/22-rdf-syntax-ns#"
   xmlns:cc="http://creativecommons.org/ns#"
   xmlns:dc="http://purl.org/dc/elements/1.1/">
  <defs
     id="defs2">
    <inkscape:perspective
       sodipodi:type="inkscape:persp3d"
       inkscape:vp_x="38.695779 : 92.441579 : 1"
       inkscape:vp_y="0 : -999.99997 : 0"
       inkscape:vp_z="-29.037552 : 92.441579 : 1"
       inkscape:persp3d-origin="4.8291136 : 103.73047 : 1"
       id="perspective147" />
    <linearGradient
       id="linearGradient3300"
       inkscape:swatch="solid">
      <stop
         style="stop-color:#000000;stop-opacity:1;"
         offset="0"
         id="stop3298" />
    </linearGradient>
    <marker
       id="ExperimentalArrow"
       refX="5"
       refY="3"
       orient="auto-start-reverse"
       inkscape:stockid="ExperimentalArrow"
       inkscape:isstock="true">
      <path
         style="fill:context-stroke"
         d="M 10,3 0,6 V 0 Z"
         id="path3195"
         inkscape:connector-curvature="0" />
    </marker>
    <marker
       style="overflow:visible"
       id="Arrow1Lstart"
       refX="0"
       refY="0"
       orient="auto"
       inkscape:stockid="Arrow1Lstart"
       inkscape:isstock="true">
      <path
         transform="matrix(0.8,0,0,0.8,10,0)"
         style="fill-rule:evenodd;stroke:#000000;stroke-width:1pt"
         d="M 0,0 5,-5 -12.5,0 5,5 Z"
         id="path2942"
         inkscape:connector-curvature="0" />
    </marker>
    <linearGradient
       id="linearGradient2878"
       inkscape:swatch="solid">
      <stop
         style="stop-color:#000000;stop-opacity:1;"
         offset="0"
         id="stop2876" />
    </linearGradient>
  </defs>
  <sodipodi:namedview
     id="base"
     pagecolor="#ffffff"
     bordercolor="#666666"
     borderopacity="1.0"
     inkscape:pageopacity="0.0"
     inkscape:pageshadow="2"
     inkscape:zoom="1.4142136"
     inkscape:cx="293.44931"
     inkscape:cy="149.90664"
     inkscape:document-units="mm"
     inkscape:current-layer="layer1"
     showgrid="false"
     inkscape:window-width="2560"
     inkscape:window-height="1380"
     inkscape:window-x="0"
     inkscape:window-y="32"
     inkscape:window-maximized="1"
     inkscape:document-rotation="0"
     inkscape:showpageshadow="2"
     inkscape:pagecheckerboard="0"
     inkscape:deskcolor="#d1d1d1" />
  <metadata
     id="metadata5">
    <rdf:RDF>
      <cc:Work
         rdf:about="">
        <dc:format>image/svg+xml</dc:format>
        <dc:type
           rdf:resource="http://purl.org/dc/dcmitype/StillImage" />
      </cc:Work>
    </rdf:RDF>
  </metadata>
  <g
     inkscape:label="Layer 1"
     inkscape:groupmode="layer"
     id="layer1"
     transform="translate(37.873384,-213.61094)"
     style="opacity:1">
    <g
       id="g5997"
       inkscape:transform-center-x="-2.3596689e-06"
       style="opacity:0.5;fill:#008000"
       transform="matrix(0.80854881,0,0,0.74639694,-110.63169,130.23898)"
       inkscape:transform-center-y="1.0014997e-06">
      <g
         id="g5989"
         style="fill:#008000">
        <g
           id="path5985"
           style="fill:#008000">
          <path
             style="color:#000000;fill:#008000"
             d="m 173.75775,138.03215 a 88.13029,88.13029 161.39353 0 1 -63.92643,21.52166 c 0,45.67764 24.36843,87.88565 63.92643,110.72447 39.55799,-22.83882 63.927,-65.04683 63.927,-110.72447 v 0 a 88.132405,88.132405 18.606318 0 1 -63.927,-21.52166 z"
             id="path6037"
             inkscape:connector-curvature="0" />
          <path
             style="color:#000000;fill:#008000"
             d="m 173.75781,129.25391 -4.34961,3.79492 c -16.2918,14.21548 -37.55504,21.37442 -59.12695,19.90625 l -7.06445,-0.48047 v 7.08008 c 0,48.03013 25.63901,92.43608 67.23437,116.45117 l 3.30664,1.91016 3.30664,-1.91016 c 41.59533,-24.01508 67.23438,-68.42099 67.23438,-116.45117 v -7.08008 l -7.0625,0.48047 c -21.57211,1.4681 -42.83683,-5.69079 -59.12891,-19.90625 z m 0,17.19336 c 16.3784,12.68141 36.40605,19.65227 57.08789,19.83984 -2.18648,39.40984 -23.45531,75.32142 -57.08789,96.20508 -33.63253,-20.88365 -54.90146,-56.7952 -57.08789,-96.20508 20.68189,-0.18742 40.70957,-7.15827 57.08789,-19.83984 z"
             id="path6039"
             inkscape:connector-curvature="0" />
        </g>
        <g
           id="path5987"
           style="fill:#008000">
          <path
             style="color:#000000;fill:#008000"
             d="m 173.75781,129.25391 -4.34961,3.79492 c -16.29181,14.21549 -37.55503,21.37442 -59.12695,19.90625 l -7.06445,-0.48047 v 7.08008 c 0,48.03012 25.63902,92.43608 67.23437,116.45117 l 3.30664,1.91016 3.30664,-1.91016 c 41.59532,-24.01507 67.23438,-68.42099 67.23438,-116.45117 v -7.08008 l -7.0625,0.48047 c -21.57211,1.4681 -42.83683,-5.69079 -59.12891,-19.90625 z m 0,17.19336 c 16.37839,12.68141 36.40605,19.65227 57.08789,19.83984 -2.18648,39.40984 -23.45531,75.32142 -57.08789,96.20508 -33.63254,-20.88365 -54.90146,-56.79519 -57.08789,-96.20508 20.68189,-0.18742 40.70958,-7.15827 57.08789,-19.83984 z"
             id="path6043"
             inkscape:connector-curvature="0" />
          <path
             style="color:#000000;fill:#008000"
             d="m 173.75781,120.47656 -4.34765,3.79297 -4.35157,3.79492 c -14.97243,13.06427 -34.50332,19.64028 -54.32812,18.29102 l -14.128908,-0.96094 v 14.16016 c 0,50.38347 26.908118,96.98753 70.541018,122.17968 l 6.61523,3.82032 6.61328,-3.82032 c 43.63372,-25.19193 70.54297,-71.79559 70.54297,-122.17968 v -14.16016 l -14.12695,0.96094 c -19.82501,1.3492 -39.3575,-5.22687 -54.33008,-18.29102 z m -0.002,17.55664 h 0.002 0.002 c 1.0677,0.93158 2.21415,1.74594 3.32031,2.6211 l -3.32227,-2.57227 -3.32226,2.57227 c 1.10612,-0.87515 2.25263,-1.68952 3.32031,-2.6211 z m 0.002,16.52344 c 14.72566,10.29177 31.85129,16.51765 49.71289,17.97852 -3.79243,33.20475 -21.85179,63.08907 -49.71289,81.86523 -27.86108,-18.77615 -45.92048,-48.66046 -49.71289,-81.86523 17.86167,-1.46077 34.98726,-7.68661 49.71289,-17.97852 z m 42.3418,3.70117 c 0.31595,0.0569 0.63059,0.11839 0.94726,0.17188 -0.3168,-0.0536 -0.6312,-0.1148 -0.94726,-0.17188 z m -84.69336,0.004 c -0.31004,0.0559 -0.61893,0.11338 -0.92969,0.16601 0.31063,-0.0525 0.61976,-0.11021 0.92969,-0.16601 z m -7.22656,1 c -0.35235,0.0337 -0.70559,0.0565 -1.0586,0.0859 0.35281,-0.0294 0.70642,-0.0523 1.0586,-0.0859 z m 99.15429,0 c 0.3542,0.0338 0.70962,0.0564 1.06446,0.0859 -0.35494,-0.0296 -0.71017,-0.052 -1.06446,-0.0859 z m -113.50195,0.29297 c 2.17767,0.14821 4.34579,0.13225 6.51367,0.11914 l -6.50781,0.0605 c -8e-5,-0.0602 -0.006,-0.11947 -0.006,-0.17968 z m 127.85156,0 c 0,0.0602 -0.006,0.11949 -0.006,0.17968 l -6.50781,-0.0605 c 2.16744,0.0131 4.33648,0.029 6.51367,-0.11914 z m -127.61523,7.11914 c 0.27956,5.025 0.87862,9.98879 1.73437,14.88476 -0.85589,-4.89726 -1.4546,-9.85984 -1.73437,-14.88476 z m 127.37891,0 c -0.27977,5.02492 -0.87848,9.9875 -1.73438,14.88476 0.85576,-4.89597 1.45481,-9.85977 1.73438,-14.88476 z m -125.50782,15.69726 c 0.86776,4.78214 2.01206,9.48802 3.40625,14.10352 -1.39419,-4.61762 -2.53844,-9.32021 -3.40625,-14.10352 z m 123.63672,0 c -0.86781,4.78331 -2.01205,9.4859 -3.40625,14.10352 1.3942,-4.6155 2.53849,-9.32138 3.40625,-14.10352 z M 115.625,197.38867 c 1.43399,4.62165 3.11538,9.15233 5.05469,13.5625 -1.93912,-4.41275 -3.62084,-8.93888 -5.05469,-13.5625 z m 116.26562,0 c -1.43385,4.62363 -3.11556,9.14975 -5.05468,13.5625 1.93931,-4.41017 3.62069,-8.94085 5.05468,-13.5625 z M 120.95703,211.5625 c 10.25678,22.99554 27.2232,42.80082 49.22656,56.48828 -22.00408,-13.68851 -38.97138,-33.47981 -49.22656,-56.48828 z m 105.60156,0 c -10.25518,23.00847 -27.22249,42.79979 -49.22656,56.48828 22.0034,-13.68747 38.9698,-33.49274 49.22656,-56.48828 z"
             id="path6045"
             inkscape:connector-curvature="0" />
        </g>
      </g>
      <g
         id="g5995"
         style="fill:#008000">
        <g
           id="path5991"
           style="fill:#008000">
          <path
             style="color:#000000;fill:#008000"
             d="m 173.75781,129.25391 -4.34961,3.79492 c -16.29181,14.21549 -37.55503,21.37442 -59.12695,19.90625 l -7.06445,-0.48047 v 7.08008 c 0,48.03012 25.63902,92.43608 67.23437,116.45117 l 3.30664,1.91016 3.30664,-1.91016 c 41.59532,-24.01507 67.23438,-68.42099 67.23438,-116.45117 v -7.08008 l -7.0625,0.48047 c -21.57211,1.4681 -42.83683,-5.69079 -59.12891,-19.90625 z m 0,17.19336 c 16.37839,12.68141 36.40605,19.65227 57.08789,19.83984 -2.18648,39.40984 -23.45531,75.32142 -57.08789,96.20508 -33.63254,-20.88365 -54.90146,-56.79519 -57.08789,-96.20508 20.68189,-0.18742 40.70958,-7.15827 57.08789,-19.83984 z"
             id="path6049"
             inkscape:connector-curvature="0" />
          <path
             style="color:#000000;fill:#008000"
             d="m 173.75781,120.47656 -4.34765,3.79297 -4.35157,3.79492 c -14.97243,13.06426 -34.50333,19.64028 -54.32812,18.29102 l -14.128908,-0.96094 v 14.16016 c 0,50.38348 26.908118,96.98753 70.541018,122.17968 l 6.61523,3.82032 6.61328,-3.82032 c 43.63372,-25.19194 70.54297,-71.79559 70.54297,-122.17968 v -14.16016 l -14.12695,0.96094 c -19.825,1.3492 -39.3575,-5.22688 -54.33008,-18.29102 z m -0.002,17.55664 h 0.002 0.002 c 1.0677,0.93158 2.21415,1.74594 3.32031,2.6211 l -3.32227,-2.57227 -3.32226,2.57227 c 1.10612,-0.87515 2.25263,-1.68952 3.32031,-2.6211 z m 0.002,16.52344 c 14.72566,10.29177 31.85128,16.51765 49.71289,17.97852 -3.79243,33.20474 -21.85179,63.08908 -49.71289,81.86523 -27.86107,-18.77615 -45.92048,-48.66046 -49.71289,-81.86523 17.86167,-1.46077 34.98726,-7.68661 49.71289,-17.97852 z m 42.3418,3.70117 c 0.31595,0.0569 0.63059,0.11839 0.94726,0.17188 -0.3168,-0.0536 -0.6312,-0.1148 -0.94726,-0.17188 z m -84.69336,0.004 c -0.31004,0.0559 -0.61893,0.11338 -0.92969,0.16601 0.31063,-0.0525 0.61976,-0.11021 0.92969,-0.16601 z m -7.22656,1 c -0.35235,0.0337 -0.7056,0.0565 -1.0586,0.0859 0.35281,-0.0294 0.70642,-0.0523 1.0586,-0.0859 z m 99.15429,0 c 0.3542,0.0338 0.70962,0.0564 1.06446,0.0859 -0.35494,-0.0296 -0.71017,-0.052 -1.06446,-0.0859 z m -113.50195,0.29297 c 2.17767,0.14821 4.34579,0.13225 6.51367,0.11914 l -6.50781,0.0605 c -8e-5,-0.0602 -0.006,-0.11947 -0.006,-0.17968 z m 127.85156,0 c 0,0.0602 -0.006,0.11949 -0.006,0.17968 l -6.50781,-0.0605 c 2.16744,0.0131 4.33648,0.029 6.51367,-0.11914 z m -127.61523,7.11914 c 0.27956,5.025 0.87862,9.98879 1.73437,14.88476 -0.85589,-4.89726 -1.4546,-9.85984 -1.73437,-14.88476 z m 127.37891,0 c -0.27977,5.02492 -0.87848,9.9875 -1.73438,14.88476 0.85576,-4.89597 1.45481,-9.85977 1.73438,-14.88476 z m -125.50782,15.69726 c 0.86776,4.78214 2.01206,9.48802 3.40625,14.10352 -1.39419,-4.61762 -2.53844,-9.32021 -3.40625,-14.10352 z m 123.63672,0 c -0.86781,4.78331 -2.01205,9.4859 -3.40625,14.10352 1.3942,-4.6155 2.53849,-9.32138 3.40625,-14.10352 z M 115.625,197.38867 c 1.43399,4.62166 3.11538,9.15233 5.05469,13.5625 -1.93912,-4.41275 -3.62084,-8.93888 -5.05469,-13.5625 z m 116.26562,0 c -1.43385,4.62362 -3.11556,9.14975 -5.05468,13.5625 1.93931,-4.41017 3.62069,-8.94085 5.05468,-13.5625 z M 120.95703,211.5625 c 10.25678,22.99554 27.22319,42.80082 49.22656,56.48828 -22.00407,-13.6885 -38.97138,-33.47981 -49.22656,-56.48828 z m 105.60156,0 c -10.25518,23.00847 -27.2225,42.79979 -49.22656,56.48828 22.0034,-13.68747 38.9698,-33.49274 49.22656,-56.48828 z"
             id="path6051"
             inkscape:connector-curvature="0" />
        </g>
        <g
           id="path5993"
           style="fill:#008000">
          <path
             style="color:#000000;fill:#008000"
             d="m 173.75781,120.47656 -4.34765,3.79297 -4.35157,3.79492 c -14.97243,13.06427 -34.50332,19.64028 -54.32812,18.29102 l -14.128908,-0.96094 v 14.16016 c 0,50.38347 26.908118,96.98753 70.541018,122.17968 l 6.61523,3.82032 6.61328,-3.82032 c 43.63372,-25.19193 70.54297,-71.79559 70.54297,-122.17968 v -14.16016 l -14.12695,0.96094 c -19.82501,1.3492 -39.3575,-5.22687 -54.33008,-18.29102 z m -0.002,17.55664 h 0.002 0.002 c 1.0677,0.93158 2.21415,1.74594 3.32031,2.6211 l -3.32227,-2.57227 -3.32226,2.57227 c 1.10612,-0.87515 2.25263,-1.68952 3.32031,-2.6211 z m 0.002,16.52344 c 14.72566,10.29177 31.85129,16.51765 49.71289,17.97852 -3.79243,33.20475 -21.85179,63.08907 -49.71289,81.86523 -27.86108,-18.77615 -45.92048,-48.66046 -49.71289,-81.86523 17.86167,-1.46077 34.98726,-7.68661 49.71289,-17.97852 z m 42.3418,3.70117 c 0.31595,0.0569 0.63059,0.11839 0.94726,0.17188 -0.3168,-0.0536 -0.6312,-0.1148 -0.94726,-0.17188 z m -84.69336,0.004 c -0.31004,0.0559 -0.61893,0.11338 -0.92969,0.16601 0.31063,-0.0525 0.61976,-0.11021 0.92969,-0.16601 z m -7.22656,1 c -0.35235,0.0337 -0.70559,0.0565 -1.0586,0.0859 0.35281,-0.0294 0.70642,-0.0523 1.0586,-0.0859 z m 99.15429,0 c 0.3542,0.0338 0.70962,0.0564 1.06446,0.0859 -0.35494,-0.0296 -0.71017,-0.052 -1.06446,-0.0859 z m -113.50195,0.29297 c 2.17767,0.14821 4.34579,0.13225 6.51367,0.11914 l -6.50781,0.0605 c -8e-5,-0.0602 -0.006,-0.11947 -0.006,-0.17968 z m 127.85156,0 c 0,0.0602 -0.006,0.11949 -0.006,0.17968 l -6.50781,-0.0605 c 2.16744,0.0131 4.33648,0.029 6.51367,-0.11914 z m -127.61523,7.11914 c 0.27956,5.025 0.87862,9.98879 1.73437,14.88476 -0.85589,-4.89726 -1.4546,-9.85984 -1.73437,-14.88476 z m 127.37891,0 c -0.27977,5.02492 -0.87848,9.9875 -1.73438,14.88476 0.85576,-4.89597 1.45481,-9.85977 1.73438,-14.88476 z m -125.50782,15.69726 c 0.86776,4.78214 2.01206,9.48802 3.40625,14.10352 -1.39419,-4.61762 -2.53844,-9.32021 -3.40625,-14.10352 z m 123.63672,0 c -0.86781,4.78331 -2.01205,9.4859 -3.40625,14.10352 1.3942,-4.6155 2.53849,-9.32138 3.40625,-14.10352 z M 115.625,197.38867 c 1.43399,4.62165 3.11538,9.15233 5.05469,13.5625 -1.93912,-4.41275 -3.62084,-8.93888 -5.05469,-13.5625 z m 116.26562,0 c -1.43385,4.62363 -3.11556,9.14975 -5.05468,13.5625 1.93931,-4.41017 3.62069,-8.94085 5.05468,-13.5625 z M 120.95703,211.5625 c 10.25678,22.99554 27.2232,42.80082 49.22656,56.48828 -22.00408,-13.68851 -38.97138,-33.47981 -49.22656,-56.48828 z m 105.60156,0 c -10.25518,23.00847 -27.22249,42.79979 -49.22656,56.48828 22.0034,-13.68747 38.9698,-33.49274 49.22656,-56.48828 z"
             id="path6055"
             inkscape:connector-curvature="0" />
          <path
             style="color:#000000;fill:#008000"
             d="m 173.75781,111.69922 -4.34765,3.79297 -4.34766,3.79297 -4.35156,3.79492 h -0.002 c -13.65379,11.91368 -31.45077,17.90619 -49.52929,16.67578 l -21.193362,-1.44141 v 21.24024 c 0,52.73794 28.176282,101.53842 73.847652,127.9082 l 9.92383,5.73047 9.91992,-5.73047 c 45.67301,-26.36931 73.85157,-75.16901 73.85157,-127.9082 v -21.24024 l -21.19141,1.44141 c -18.07873,1.23036 -35.87745,-4.76232 -49.53125,-16.67578 h -0.002 z m 0,17.55469 2.48242,2.16406 h -0.28515 l -2.19727,-1.70117 -4.33984,3.36132 -0.0117,-0.0273 v -0.002 z m -7.42187,6.21875 7.08008,9.04687 -4.00586,-1.50195 c 1.39622,1.21822 2.63844,2.09004 3.5664,2.82422 l 0.73633,-0.94141 0.0449,0.0566 0.0449,-0.0566 0.73633,0.94141 c 0.92781,-0.73407 2.1701,-1.6059 3.56641,-2.82422 l 6.00195,-5.23633 c 9.90544,7.12693 21.25291,11.8291 33.16211,13.97461 l -2.31445,12.83398 c -13.38099,-2.42838 -26.15324,-7.58897 -37.40821,-15.45507 l -3.78906,-2.64844 -3.78906,2.64844 c -11.25873,7.86885 -24.03592,13.02984 -37.42188,15.45703 l -2.31054,-12.83203 c 13.12201,-2.36206 25.51579,-7.91294 36.09961,-16.28711 z m -36.96289,16.4414 2.16992,12.82813 c -2.23999,0.38116 -4.47341,0.79001 -6.74414,1.00781 l -1.24805,-13.06445 c 1.95491,-0.18659 3.89251,-0.44553 5.82227,-0.77149 z m 88.77539,0.002 c 1.92719,0.32541 3.86219,0.58311 5.81445,0.76953 l -1.25,13.06445 c -2.26685,-0.21754 -4.4962,-0.62747 -6.73242,-1.00781 z m -95.57617,0.84765 1.0957,13.15625 c -0.0546,0.005 -0.10745,0.019 -0.16211,0.0234 l -6.80859,0.55664 0.13671,1.1875 c -0.0316,-0.46338 -0.13626,-0.91673 -0.1621,-1.38086 l -13.20704,0.73438 c 0.29387,5.27807 0.92385,10.47035 1.8125,15.57226 -0.89273,-5.12448 -1.51967,-10.31555 -1.8125,-15.57226 -0.0117,-0.21017 -0.0108,-0.42248 -0.0215,-0.63282 l 12.94141,-0.11914 h 0.0215 l -0.0508,-6.6582 0.0977,0.0957 c -6.5e-4,-0.48807 -0.006,-0.54524 -0.006,-0.17187 l -0.0918,0.0684 -0.0488,-6.55664 c 2.09972,-0.0126 4.18447,-0.12938 6.26563,-0.30274 z m 102.375,0 c 2.07992,0.17321 4.16326,0.29004 6.26171,0.30274 l -0.0508,6.55664 -0.0898,-0.0684 c 0,-0.37931 -0.006,-0.32008 -0.006,0.17968 l 0.0957,-0.0957 -0.0508,6.65039 h 0.0215 l 12.94336,0.11914 c -0.0107,0.21034 -0.01,0.42265 -0.0215,0.63282 -0.29283,5.25676 -0.91973,10.44775 -1.8125,15.57226 0.88867,-5.10192 1.51864,-10.29419 1.8125,-15.57226 l -13.20703,-0.73438 c -0.0258,0.46413 -0.13053,0.91748 -0.16211,1.38086 l 0.13672,-1.1875 -6.80859,-0.55664 c -0.0534,-0.004 -0.10485,-0.019 -0.15821,-0.0234 z m -108.61329,6.8457 0.0176,0.0176 -0.0176,0.0117 z m 114.84571,0.008 v 0.0215 l -0.0117,-0.01 z m -57.42188,2.65625 c 12.79507,8.18876 27.08903,13.54367 42.07617,15.79297 -4.748,27.22767 -19.69857,51.53424 -42.07617,68.05273 -22.37758,-16.51849 -37.32818,-40.82505 -42.07617,-68.05273 14.9872,-2.24924 29.28111,-7.6041 42.07617,-15.79297 z m -56.24218,11.26367 c 0.50053,4.30182 1.21476,8.55493 2.16015,12.73633 6.74864,29.84888 24.60738,56.23942 50.38477,73.61133 l 3.69726,2.49218 3.69727,-2.49218 c 25.77741,-17.37192 43.63612,-43.76246 50.38476,-73.61133 0.94539,-4.1814 1.65962,-8.43452 2.16016,-12.73633 -0.27301,2.29383 -0.40503,4.60726 -0.80273,6.88281 l 13.02734,2.27735 c -0.0498,0.28463 -0.091,0.57131 -0.14258,0.85546 l -13.01367,-2.36328 c -0.31229,1.72131 -0.8415,3.38291 -1.22852,5.08399 -0.63098,2.77339 -1.181,5.57007 -2.00195,8.28906 l 12.6582,3.82227 c -0.0968,0.32063 -0.19376,0.64116 -0.29297,0.96093 l -12.63085,-3.91797 c -1.9e-4,5.9e-4 1.8e-4,10e-4 0,0.002 -1.36279,4.39192 -2.95682,8.68824 -4.79102,12.85937 -3.4e-4,7.7e-4 -0.002,0.001 -0.002,0.002 l 12.10547,5.32031 c -0.0947,0.21536 -0.19525,0.42774 -0.29102,0.64258 l -12.07617,-5.38672 c -2.4e-4,5.3e-4 2.4e-4,0.001 0,0.002 -8.51086,19.0805 -21.88941,35.84337 -39.08008,48.43164 -2.45635,1.79872 -4.99063,3.50987 -7.59961,5.13281 l 6.98633,11.23047 c -1.25386,0.78006 -2.47519,1.60015 -3.75977,2.3418 h -0.002 l -3.30469,1.91016 -3.30664,-1.91016 h -0.002 c -1.28377,-0.7412 -2.50473,-1.56028 -3.75781,-2.33984 l 6.98632,-11.23243 c -2.6084,-1.62266 -5.14188,-3.33494 -7.59765,-5.13281 -4.2e-4,-3e-4 -0.002,3e-4 -0.002,0 -17.19065,-12.58827 -30.5692,-29.35114 -39.08007,-48.43164 -2.4e-4,-5.3e-4 2.4e-4,-0.001 0,-0.002 l -12.07617,5.38672 c -0.0959,-0.21506 -0.19822,-0.427 -0.29297,-0.64258 l 12.10742,-5.32031 c -3.4e-4,-7.7e-4 -0.002,-0.001 -0.002,-0.002 -1.15083,-2.61708 -2.04173,-5.36035 -3.00586,-8.06836 -0.57241,-1.60742 -1.27774,-3.15478 -1.78516,-4.79101 -1.8e-4,-5.9e-4 1.8e-4,-0.001 0,-0.002 l -12.63086,3.91797 c -0.0992,-0.31977 -0.19613,-0.6403 -0.29297,-0.96093 l 12.6582,-3.82227 c -0.82094,-2.719 -1.37096,-5.51567 -2.00195,-8.28906 -0.38702,-1.70108 -0.91623,-3.36268 -1.22851,-5.08399 l -13.01368,2.36328 c -0.0516,-0.28414 -0.0928,-0.57083 -0.14257,-0.85546 l 13.02734,-2.27735 c -0.39763,-2.27492 -0.52969,-4.58887 -0.80273,-6.88281 z m -12.07422,10.05664 c 0.90768,4.99294 2.1022,9.8982 3.55078,14.70508 -1.45096,-4.81567 -2.64401,-9.71859 -3.55078,-14.70508 z m 136.63281,0 c -0.90681,4.98652 -2.09977,9.8894 -3.55078,14.70508 1.44814,-4.80755 2.64295,-9.71046 3.55078,-14.70508 z m -132.73047,15.85742 c 0.55166,1.77311 1.3227,3.46613 1.94531,5.21485 1.05951,2.9749 2.03773,5.98079 3.30664,8.87304 -2.01179,-4.58475 -3.75837,-9.28704 -5.25195,-14.08789 z m 128.82812,0 c -1.49191,4.79536 -3.23711,9.4925 -5.24609,14.07227 1.26631,-2.88731 2.24314,-5.88777 3.30078,-8.85742 0.62261,-1.74872 1.39366,-3.44174 1.94531,-5.21485 z m -123.16406,14.9961 c 0.23982,0.53541 0.52867,1.04604 0.77539,1.57812 1.07154,2.31229 2.16523,4.61376 3.36524,6.85938 -1.47676,-2.76361 -2.85899,-5.57458 -4.14063,-8.4375 z m 117.48438,0.0312 c -1.27771,2.85209 -2.65361,5.65276 -4.125,8.40625 1.2,-2.24562 2.29369,-4.54709 3.36523,-6.85938 0.24183,-0.52151 0.52458,-1.02216 0.75977,-1.54687 z m -113.06055,8.93554 c 1.51538,2.80557 3.1231,5.55929 4.83399,8.25 -1.71116,-2.69181 -3.31837,-5.44384 -4.83399,-8.25 z m 108.65234,0 c -1.51566,2.80616 -3.12278,5.5582 -4.83398,8.25 1.71088,-2.69071 3.31861,-5.44443 4.83398,-8.25 z m -103.76171,8.33985 c 8.87667,13.93603 20.33433,26.258 33.9414,36.2207 2.70351,1.97974 5.49345,3.86491 8.36328,5.65234 -17.31343,-10.78439 -31.66137,-25.15916 -42.30468,-41.87304 z m 98.87109,0 c -10.63874,16.70613 -24.98009,31.07473 -42.2832,41.85742 2.86171,-1.78323 5.64543,-3.66252 8.34179,-5.63672 13.60708,-9.96269 25.06474,-22.28467 33.94141,-36.2207 z"
             id="path6057"
             inkscape:connector-curvature="0" />
        </g>
      </g>
    </g>
    <g
       id="g5917"
       inkscape:transform-center-x="-3.2759748e-06"
       style="opacity:0.5;fill:#0066ff"
       transform="matrix(0.80854881,0,0,0.74639694,-110.63172,129.81403)">
      <g
         id="path5913"
         style="fill:#0066ff">
        <path
           style="color:#000000;fill:#0066ff"
           d="m 173.75775,138.03215 a 88.13029,88.13029 161.39353 0 1 -63.92643,21.52166 c 0,45.67764 24.36843,87.88565 63.92643,110.72447 39.55799,-22.83882 63.927,-65.04683 63.927,-110.72447 v 0 a 88.132405,88.132405 18.606318 0 1 -63.927,-21.52166 z"
           id="path5957"
           inkscape:connector-curvature="0" />
        <path
           style="color:#000000;fill:#0066ff"
           d="m 173.75781,129.25391 -4.34961,3.79492 c -16.29181,14.21549 -37.55503,21.37442 -59.12695,19.90625 l -7.06445,-0.48047 v 7.08008 c 0,48.03012 25.63902,92.43608 67.23437,116.45117 l 3.30664,1.91016 3.30664,-1.91016 c 41.59532,-24.01507 67.23438,-68.42099 67.23438,-116.45117 v -7.08008 l -7.0625,0.48047 c -21.57211,1.4681 -42.83683,-5.69079 -59.12891,-19.90625 z m 0,17.19336 c 16.37839,12.68141 36.40605,19.65227 57.08789,19.83984 -2.18648,39.40984 -23.45531,75.32142 -57.08789,96.20508 -33.63254,-20.88365 -54.90146,-56.79519 -57.08789,-96.20508 20.68189,-0.18742 40.70958,-7.15827 57.08789,-19.83984 z"
           id="path5959"
           inkscape:connector-curvature="0" />
      </g>
      <g
         id="path5915"
         style="fill:#0066ff">
        <path
           style="color:#000000;fill:#0066ff"
           d="m 173.75781,129.25391 -4.34961,3.79492 c -16.29181,14.21549 -37.55503,21.37442 -59.12695,19.90625 l -7.06445,-0.48047 v 7.08008 c 0,48.03012 25.63902,92.43608 67.23437,116.45117 l 3.30664,1.91016 3.30664,-1.91016 c 41.59532,-24.01507 67.23438,-68.42099 67.23438,-116.45117 v -7.08008 l -7.0625,0.48047 c -21.57211,1.4681 -42.83683,-5.69079 -59.12891,-19.90625 z m 0,17.19336 c 16.37839,12.68141 36.40605,19.65227 57.08789,19.83984 -2.18648,39.40984 -23.45531,75.32142 -57.08789,96.20508 -33.63254,-20.88365 -54.90146,-56.79519 -57.08789,-96.20508 20.68189,-0.18742 40.70958,-7.15827 57.08789,-19.83984 z"
           id="path5963"
           inkscape:connector-curvature="0" />
        <path
           style="color:#000000;fill:#0066ff"
           d="m 173.75781,120.47656 -4.34765,3.79297 -4.35157,3.79492 c -14.97243,13.06427 -34.50332,19.64028 -54.32812,18.29102 l -14.128908,-0.96094 v 14.16016 c 0,50.38347 26.908118,96.98753 70.541018,122.17968 l 6.61523,3.82032 6.61328,-3.82032 c 43.63372,-25.19193 70.54297,-71.79559 70.54297,-122.17968 v -14.16016 l -14.12695,0.96094 c -19.82501,1.3492 -39.3575,-5.22687 -54.33008,-18.29102 z m -0.002,17.55664 h 0.002 0.002 c 1.0677,0.93158 2.21415,1.74594 3.32031,2.6211 l -3.32227,-2.57227 -3.32226,2.57227 c 1.10612,-0.87515 2.25263,-1.68952 3.32031,-2.6211 z m 0.002,16.52344 c 14.72566,10.29177 31.85129,16.51765 49.71289,17.97852 -3.79243,33.20475 -21.85179,63.08907 -49.71289,81.86523 -27.86108,-18.77615 -45.92048,-48.66046 -49.71289,-81.86523 17.86167,-1.46077 34.98726,-7.68661 49.71289,-17.97852 z m 42.3418,3.70117 c 0.31595,0.0569 0.63059,0.11839 0.94726,0.17188 -0.3168,-0.0536 -0.6312,-0.1148 -0.94726,-0.17188 z m -84.69336,0.004 c -0.31004,0.0559 -0.61893,0.11338 -0.92969,0.16601 0.31063,-0.0525 0.61976,-0.11021 0.92969,-0.16601 z m -7.22656,1 c -0.35235,0.0337 -0.70559,0.0565 -1.0586,0.0859 0.35281,-0.0294 0.70642,-0.0523 1.0586,-0.0859 z m 99.15429,0 c 0.3542,0.0338 0.70962,0.0564 1.06446,0.0859 -0.35494,-0.0296 -0.71017,-0.052 -1.06446,-0.0859 z m -113.50195,0.29297 c 2.17767,0.14821 4.34579,0.13225 6.51367,0.11914 l -6.50781,0.0605 c -8e-5,-0.0602 -0.006,-0.11947 -0.006,-0.17968 z m 127.85156,0 c 0,0.0602 -0.006,0.11949 -0.006,0.17968 l -6.50781,-0.0605 c 2.16744,0.0131 4.33648,0.029 6.51367,-0.11914 z m -127.61523,7.11914 c 0.27956,5.025 0.87862,9.98879 1.73437,14.88476 -0.85589,-4.89726 -1.4546,-9.85984 -1.73437,-14.88476 z m 127.37891,0 c -0.27977,5.02492 -0.87848,9.9875 -1.73438,14.88476 0.85576,-4.89597 1.45481,-9.85977 1.73438,-14.88476 z m -125.50782,15.69726 c 0.86776,4.78214 2.01206,9.48802 3.40625,14.10352 -1.39419,-4.61762 -2.53844,-9.32021 -3.40625,-14.10352 z m 123.63672,0 c -0.86781,4.78331 -2.01205,9.4859 -3.40625,14.10352 1.3942,-4.6155 2.53849,-9.32138 3.40625,-14.10352 z M 115.625,197.38867 c 1.43399,4.62165 3.11538,9.15233 5.05469,13.5625 -1.93912,-4.41275 -3.62084,-8.93888 -5.05469,-13.5625 z m 116.26562,0 c -1.43385,4.62363 -3.11556,9.14975 -5.05468,13.5625 1.93931,-4.41017 3.62069,-8.94085 5.05468,-13.5625 z M 120.95703,211.5625 c 10.25678,22.99554 27.2232,42.80082 49.22656,56.48828 -22.00408,-13.68851 -38.97138,-33.47981 -49.22656,-56.48828 z m 105.60156,0 c -10.25518,23.00847 -27.22249,42.79979 -49.22656,56.48828 22.0034,-13.68747 38.9698,-33.49274 49.22656,-56.48828 z"
           id="path5965"
           inkscape:connector-curvature="0" />
      </g>
    </g>
    <g
       id="path5806"
       inkscape:transform-center-x="-3.51017e-06"
       style="opacity:0.5;fill:#ff0000"
       transform="matrix(0.80854881,0,0,0.74639694,-110.63172,129.38907)">
      <path
         style="color:#000000;fill:#ff0000;stroke-width:13.2292"
         d="m 173.75775,138.03215 a 88.13029,88.13029 161.39353 0 1 -63.92643,21.52166 c 0,45.67764 24.36843,87.88565 63.92643,110.72447 39.55799,-22.83882 63.927,-65.04683 63.927,-110.72447 v 0 a 88.132405,88.132405 18.606318 0 1 -63.927,-21.52166 z"
         id="path5888"
         inkscape:connector-curvature="0" />
      <path
         style="color:#000000;fill:#ff0000"
         d="m 173.75781,129.25391 -4.34961,3.79492 c -16.29181,14.21549 -37.55503,21.37442 -59.12695,19.90625 l -7.06445,-0.48047 v 7.08008 c 0,48.03012 25.63902,92.43608 67.23437,116.45117 l 3.30664,1.91016 3.30664,-1.91016 c 41.59532,-24.01507 67.23438,-68.42099 67.23438,-116.45117 v -7.08008 l -7.0625,0.48047 c -21.57211,1.4681 -42.83683,-5.69079 -59.12891,-19.90625 z m 0,17.19336 c 16.37839,12.68141 36.40605,19.65227 57.08789,19.83984 -2.18648,39.40984 -23.45531,75.32142 -57.08789,96.20508 -33.63254,-20.88365 -54.90146,-56.79519 -57.08789,-96.20508 20.68189,-0.18742 40.70958,-7.15827 57.08789,-19.83984 z"
         id="path5885"
         inkscape:connector-curvature="0" />
    </g>
    <path
       style="opacity:1;fill:#ffcc00;fill-opacity:1;stroke:none;stroke-width:0.0275386;stroke-miterlimit:4;stroke-dasharray:none;stroke-opacity:1"
       d="m 29.85972,231.99022 a 71.257641,65.780178 0 0 1 -51.68764,16.0637 c 0,34.09364 19.70307,65.59758 51.68764,82.6444 31.98457,-17.04682 51.6881,-48.55076 51.6881,-82.6444 v 0 a 71.259352,65.781757 0 0 1 -51.6881,-16.0637 z"
       id="path5891"
       inkscape:connector-curvature="0" />
    <g
       id="g4000"
       transform="matrix(1.2500001,0,0,1.2500001,-7.4649906,-70.336094)">
      <path
         d="m 29.859951,260.1776 c 6.479117,0 12.254442,2.88819 16.131117,7.44538 l 2.834216,-2.83422 c 0.245533,-0.24553 0.582083,-0.38206 0.930275,-0.37782 0.700617,0.0106 1.271058,0.58949 1.271058,1.2901 v 11.17812 c 0,0.70803 -0.582083,1.29011 -1.290108,1.29011 H 38.558393 c -0.706967,-10e-4 -1.28905,-0.58314 -1.28905,-1.29011 0,-0.34184 0.135466,-0.66992 0.376766,-0.91122 l 2.30505,-2.30505 c -1.299633,-1.70815 -3.007783,-3.06811 -4.968874,-3.93595 -0.303742,-0.13335 -0.613834,-0.25505 -0.928159,-0.36512 -0.02752,-0.01 -0.05503,-0.0201 -0.08255,-0.0296 -0.288925,-0.0984 -0.582083,-0.18521 -0.878416,-0.26459 -0.04127,-0.0106 -0.08255,-0.0222 -0.124884,-0.0328 -0.297391,-0.0751 -0.600075,-0.13758 -0.904875,-0.19155 -0.03598,-0.006 -0.07091,-0.0148 -0.10795,-0.0212 -0.284691,-0.0476 -0.573616,-0.0836 -0.8636,-0.11113 -0.06456,-0.006 -0.129116,-0.018 -0.194733,-0.0233 -0.3429,-0.0286 -0.687917,-0.0434 -1.037167,-0.0434 -5.786966,0.004 -10.839449,3.92112 -12.286191,9.525 H 8.9292937 C 10.452235,267.95953 19.213118,260.1776 29.859951,260.1776 Z"
         fill="#48a9ff"
         id="path1210"
         style="fill:#ff6600;fill-rule:nonzero;stroke-width:1.05833" />
      <path
         d="m 50.790609,284.51927 c -1.522942,10.20974 -10.283825,17.99167 -20.930658,17.99167 -6.480174,0 -12.255499,-2.88714 -16.128999,-7.4475 l -2.836333,2.83634 c -0.245534,0.24553 -0.582084,0.38206 -0.9302753,0.37782 -0.7006167,-0.0106 -1.2710583,-0.58949 -1.2710583,-1.29011 v -11.17811 c 0,-0.70803 0.5820833,-1.29011 1.2901083,-1.29011 H 21.16151 c 0.706967,10e-4 1.28905,0.58314 1.28905,1.29011 0,0.34184 -0.135467,0.66992 -0.376767,0.91122 l -2.296583,2.29659 c 1.299633,1.7092 2.999317,3.07551 4.960408,3.9444 0.303742,0.13335 0.613834,0.25506 0.928159,0.36513 0.02752,0.01 0.05503,0.0201 0.08255,0.0296 0.288925,0.0984 0.582083,0.18521 0.878416,0.26459 0.04127,0.0106 0.08255,0.0222 0.124883,0.0328 0.297392,0.0751 0.600075,0.13759 0.904875,0.19156 0.03598,0.006 0.07091,0.0148 0.10795,0.0212 0.284692,0.0476 0.573617,0.0836 0.8636,0.11112 0.06456,0.006 0.129117,0.018 0.194734,0.0233 0.3429,0.0286 0.687916,0.0434 1.037166,0.0434 5.786967,-0.004 10.83945,-3.92113 12.286192,-9.525 z"
         fill="#486afb"
         id="path1212"
         style="fill:#008000;fill-rule:nonzero;stroke-width:1.05833" />
    </g>
  </g>
</svg>
